<?xml version="1.0" encoding="UTF-8"?>
<svg id="Layer_2" data-name="Layer 2" xmlns="http://www.w3.org/2000/svg" viewBox="0 0 492.27 515.09">
  <defs>
    <style>
      .cls-1 {
        fill: #112133;
      }

      .cls-1, .cls-2, .cls-3, .cls-4, .cls-5 {
        stroke-width: 0px;
      }

      .cls-2 {
        fill: #221e15;
      }

      .cls-3 {
        fill: #120300;
      }

      .cls-4 {
        fill: #081530;
      }

      .cls-5 {
        fill: #2b2013;
      }
    </style>
  </defs>
  <g id="Layer_6" data-name="Layer 6">
    <g id="Logo">
      <g>
        <path class="cls-3" d="M433.42,390.02c.6,2.33,1.17,4.7,1.7,7.1h0c-.6-2.33-1.17-4.7-1.7-7.1h0Z"/>
        <path class="cls-3" d="M179.32,366.72s0,0,0,0c0,0,.01,0,.02,0,0,0-.01,0-.02,0Z"/>
        <path class="cls-3" d="M448.12,104.92l.1.1C349.92-35.88,136.72-36.68,41.32,112.82,4.42,170.62-9.38,250.42,6.52,318.82c1.4,0,2.9.2,4.3.2,0,0,.2,0,.3-.1-2.7-9.4-2.8-19.1-2.8-28.9v-3.8c-.2-5.1-.5-10.3-.6-15.4-.2-8.1-.2-16.4,1.4-24.4.6-3.2,1.4-6.2,2.3-9,0-.2-.1-.4-.2-.5-6-18.9.3-36.3,11.2-52,14.5-20.9,27.6-41.5,46.6-58.9,19-17.3,39.8-32.5,59.1-49.6,17.9-15.9,40.2-30.1,64.4-33.9,7.8-1.2,15.9-1.3,23.5.6.6-.3,1.1-.6,1.7-.8,9.2-4.3,19.5-7.1,29.8-6.2,6.3.6,11.8,2.4,17.3,5.3,1.6.8,3,1.6,4.4,2.6h.8c5.9-.3,11.8-.7,17.7-.4,18.3.9,35.7,6.9,53.3,11.6,14.2,3.7,28.7,6.8,42.2,12.8,14.3,6.4,25.4,14.9,37.3,24.7,13.1,10.8,25.7,21.2,33.9,36.4,14.8,27.4,16.3,57.7,20.6,87.7,2.1,14.6,5.8,30.5,4.1,45.3-1.4,12.2-8.6,22.3-19.5,27.8-5.5,2.8-11.4,3.3-17.4,4-30,3.8-59.4,11.3-89.3,15.8-31.7,4.8-63.1,11.3-94.4,18.4-15,3.4-30,7.4-45,10.7-14.5,3.1-29.1,6.8-43.8,8.8-9.3,1.3-18.4,3.2-27.6,4.7-7.9,2.6-16.1,5.5-25.7,9.1-13.3,4.9-25.6,12.1-39.2,16.3-14.7,4.5-29.9,5.9-44.8,9.6,1.3,2.5,2.6,4.9,4.1,7.3,15.4-.6,30.77-1.23,46.1-1.9-1.5,2.6-3.5,4.7-5.2,7.1-3.4,5-7.4,9.6-10.4,14.9,17.6-1.9,35.6-1.4,53.2-3.9,3,1-8.3,8.3-10.2,9.4-11.3,6.2-30.8,9.8-43.5,13.8,1.9,2.2,15.5,17.2,16.7,17.5.9.2,3-1.8,4-2.4,4.9-2.9,16.4-13.3,29.9-20.7,39.1-21.3,113.5-36.9,158-41.7,56.2-6,99.9-3.7,147.8,29.2l-.2,2.1c-5.9-1.7-29.3,1-31.1.5-4.5-1.3,5.9-5.4-20.3-.9,2.7-10.6-12.3,2.3-16.4,2.2-4,0-1.4-2.3-4.9-2.5.27.73.53,1.47.8,2.2-7.6,1.4-51.2,18.9-54.8,16.9-1.3-.7-.6-2.5-1.1-2.9-1-.6-6.8,1.3-8.4,1.3-6.6,0-5.1-5.9-10.1,4.6-11.1-14.9-5,1.6-8,4.1-1.3,1.1-30,5.4-34,5.4,3.9-15.7-10.5,1.3-11.5-9.4-.53-.2-1.1-.37-1.7-.5-.2,8-3.9,5.1-13.5,8,3.3,12-1.4,6.2-7.8,9.3-.1,0,.3,2-1.3,2.6-4.4,1.8-21.3,6.8-25,5.2-4.5-1.9-2.9-15.3-9.5,1.9-12.2-17.9-8.9-1.4-13.8,0-.7.2-14.3-1.2-15.1-1.4-4.2-1.4-10-17.1-8.7,4.7l-19.7.2c21.8,15.4,44.9,29.2,70.8,36.4,121.4,33.9,250.5-28.6,294.8-147.2,31.1-83.5,27.6-179.4-24.3-253.8ZM435.22,397.02l-.1.1c-.3.3.9,3.7-5,5.7-2.7-3.5-9.8-4.8-9.9-8.5-1.8.1-23.6-8.5-34.5-10.9-17.7-3.8-35.8-4.3-53.6-6.8,33.3-25.2,83.7-27.1,114.4,3.2-1.4,7.2-6.9,12-11.3,17.2ZM114.12,380.52c-2,1.1,1.3,5.1-.9,6.1-.8.4-15.1,1.1-17.8,1.4,16.8-14.3,37.1-23.7,57.8-30.8,57.3-19.5,194.9-39,262.4-56.7,19.5-3.3,39.2-5.4,59-3.4,1.3,1.1-2.7,13.4-3.2,15.6h0s0,0,0,0v.1c-.8,3.4-5.6,25.4-7.7,26.2-.5.2-10.6,0-11-.4,4.3-12.4,1.2-6.4-2.6-8.5-3.9-2.2,5-10.8-15.4-1.1,1.4,3.27,2.83,6.5,4.3,9.7-7.3-1.2-23.2.4-28.9-1.4-.9-.3-.8-3.1-2.5-3-.3,0-1.4,2.7-5.9,3.6-12,2.5-36.8,2.4-54.1,9.4-1.85-3.17-3.73-6.31-5.65-9.41-.02,0-.04,0-.05,0-1,.2-.7.6-.7.6,0,0-.01,0-.02,0,0,0,.01,0,.02,0v-.1c.47,3.27.97,6.53,1.5,9.8-16.1,7.2-17.4-4.2-20.3-4l-1.7,10.9c-10.8.2-26.8,7.1-28.3,7-1.4-.1-19.8-24.6-6.7,1.1-4.3,1.7-36.6,10.7-38.6,10.5-3.9-.4-20.5-21.6-7.8-1.1-1,5.4-6.4-10.9-8.4-10.1,4.8,24.7-4.3,3.4-6.6,3.5-4,.2,5,24.8-10.9,5.2l-4.3,9.3c-3.8-15.2,0-12.1-6.2.1-10.8-8-7.6-2.2-17.4,8.7l-3.7-12.1c-2.3,1.6-12.8,12.2-13.6,12.5-1.4.5-6.6-3.5-2.7,2.9-.5,3-26-.8-27.1-1.5-1.3-.8-.4-9.9-1.8-10.5-13.3,2.8-5.7,6.7-9,7.4-4.6-2.4-13.4-4.2-13.5-7.5"/>
      </g>
      <g id="Tree-1">
        <g id="Leaves">
          <path class="cls-3" d="M280.87,133.87c-2.54,5.62-1.43,4.96-1.65,5.29-.44.66-1.98-.11-2.76.55-.59,2.57-.99,11.02-6.61,5.51-.11-1.32,0-.55-1.1-1.98-1.32-.77-2.43-2.09-3.31-3.31-1.32-1.87-2.65-3.75-1.32-5.51l4.63,4.63c-6.28-14.88-.55-4.63.55-6.61-1.21-4.08.66-1.21,1.1-2.2.66-1.32-1.21-3.09-1.1-3.31.44-1.1,2.98,2.87,1.98-4.19,2.32,7.61,3.97-4.08,4.41,3.86.99.44,5.4-8.71,3.86,3.86,6.17-4.3,3.64-1.76,1.32,3.31v.11Z"/>
          <g>
            <path class="cls-3" d="M304.85,143.24s1.32-.11,1.65.88c.55,1.32-.55,3.2,1.1,4.96.99,1.1,3.97.88,5.51,3.09,1.43,1.98.88,2.65.55,4.41-4.63,7.61-4.3,3.2-11.02,6.06-10.58-3.86-5.07-3.42-4.96-4.63,0-.44-1.87-1.21-2.76-2.43-5.07-7.61,2.76-.77,3.31-3.09-1.65-1.87-5.95-9.48-3.86-8.6.33.22,1.43,3.2,6.39,3.86-1.76-4.08,0-4.3-.88-7.5,2.98-2.32,3.64,3.09,3.86,3.31.88.99,1.1-.33,1.1-.22v-.11Z"/>
            <path class="cls-3" d="M313.12,152.56c-1.54-2.09-4.52-1.87-5.51-3.09-1.65-1.76-.55-3.64-1.1-4.96-.33-.99-1.54-.77-1.65-.88,1.76-8.49,3.75-5.73,3.86,1.98,5.29-2.65,2.43,1.32,3.31,3.31,0,.22,2.98-.88,1.1,3.53v.11Z"/>
          </g>
          <g>
            <path class="cls-3" d="M343.99,143.79c.22.55-.99,1.43,1.1,4.63-1.98,2.76-4.08.88-4.41,1.65-.33.66,8.05,10.69-4.19,3.09-.55,2.32-.77,4.85-1.32,7.17.22-9.7-2.5-8.32-10.77-10.3-.77-2.09-3.23-6.24.3-6.46-4.08-4.19-5.84-7.61,1.1-3.86-3.86-6.84,2.54,3.53-.55-6.61l2.2,1.1c1.32-10.25,1.76-2.09,2.43-1.98.22,0,0-2.43,3.09-1.1.77,1.43,2.09-.22,0-1.1l.88-1.65c1.87,5.84,2.32,1.21,3.53,2.43.99.99-.77,9.04,3.31,4.96.22,8.6,1.65,2.65,3.31,7.94v.11Z"/>
            <path class="cls-3" d="M332.96,131.11v-1.1c2.09.88.77,2.54,0,1.1Z"/>
          </g>
          <g>
            <path class="cls-3" d="M233.19,192.85c5.07,1.98,1.1.88,1.1,2.43,0,.66,2.32,1.1,3.86,3.53.99,1.76,3.09,6.06,2.2,7.72l-1.65,2.76c-3.42-.22-3.31-1.98-5.73,1.65-.22-4.08-4.96-2.65-6.06-3.31-.11,0,.44-.55-2.43-2.76-.99-.77-2.43-.88-3.31-1.98-.22-.33,3.75-.55-4.41-4.96,0-.33,7.83.44,3.31-1.32,2.87-2.98,9.37-5.4,13.23-3.86l-.11.11Z"/>
            <path class="cls-3" d="M226.58,185.13c.66,1.32,1.32,2.54,1.98,3.86,2.76-3.2,6.28.99,4.63,3.86-3.86-1.54-10.36.88-13.23,3.86-.44-.22-2.09.33-2.2-.22,6.72,0-6.28-10.14,3.09-5.29l-.88-4.63c4.52,3.75,2.54-2.09,6.61-1.32v-.11Z"/>
          </g>
          <g>
            <path class="cls-3" d="M349.24,207.69c-1.21,3.09-7.06,0-1.1,4.19-6.95,1.54-3.09,2.43-3.31,2.76-.44.55-.99.22-1.1.22l-2.43-.55,1.98,1.1c-.33.33,1.98,1.1-2.2,1.32-.33,5.95-1.1-1.21-1.98-1.32-1.98,2.43-2.87,2.09-3.09,2.2-1.98-2.76-.22-5.18-.55-6.39-.33-1.32-2.65-2.87-2.76-3.09-.77-1.98,0-2.98,0-4.96v-1.65c6.61,3.75,8.71-.55,12.13-5.51,5.51-8.16.22,2.09.55,2.43.55.77,4.3-1.54-.55,6.06,11.36-5.07-1.54,2.32,4.41,3.09v.11Z"/>
            <path class="cls-3" d="M343.99,214.35l-.55.55-1.98-1.1,2.43.55h.11Z"/>
            <path class="cls-3" d="M345.09,195.61c-3.42,4.96-5.77,10.68-12.39,6.93-.44-6.95,2.13,4.97,4.45-10.24,5.73,10.8,4.3-10.58,7.94,3.31Z"/>
            <path class="cls-3" d="M333.22,203.33c0,1.98-.77,2.98,0,4.96-.77.66-1.54.55-1.65.55-3.75-.55-.44-4.74-2.2-5.73l3.86.22Z"/>
          </g>
          <path class="cls-3" d="M271.78,152.61c-2.98,4.3-.44-3.64-4.41.55,1.43-6.72-.55.66-2.43-3.31.44,6.72-3.42-1.43-2.76,4.96-8.27-4.52,3.42,6.06-2.76,2.2-1.1,2.65,3.31,4.35,3.86,6.67,1.32-.77,1.74-2.81,3.5-3.36.99-.33,1.56-.74,2.45-.96h1.4c4.09-1.21,1.46-2.68,1.14-6.75Z"/>
          <g>
            <path class="cls-3" d="M245.87,137.73c-1.1-.11-2.32,5.95-2.2,6.39.44,2.09,2.65-1.1,3.31.55l-1.48,11.85c-3.53-.66-3.26,1.16-7.78,1.82-.55,0-4.96-2.43-5.07-2.2,3.2,1.54-.66,7.28,4.19,6.39.88-.22.66-3.42,3.09,0,.55,5.95-2.98,10.58,1.1,14.33-1.43,8.93-1.98-1.1-5.29,6.06-1.43-5.4-2.98-.44-4.41-1.1-.55-.22-.77-3.09-1.65-3.31-.44,0-.44,2.76-4.96,0-1.54-2.2,5.51-3.53-3.53-4.96-3.97-4.74,1.76-.55.88-4.41,10.36-.22-.66-.77-1.1-1.1-1.43-.88.33-1.87-.55-2.2-1.32-.55-3.31,1.87-4.19-.55l1.1-1.32c-7.83-6.84,8.27,1.76-.55-4.96,3.31-.88-1.76-5.62-1.65-6.06.11-.55,3.09.88.55-3.86l.88-.88c6.06,4.41,2.43.66,2.2-3.31,2.87,3.75,8.38,5.51,5.73-.55,3.53.77,6.95,3.64,3.31-1.98l2.76.88c2.76,4.52.55.22.55,0,0,0,1.21.11,1.1-.22,0-.44-2.54-4.41-2.2-4.96.66-.99,2.76,3.75,3.09-3.53,4.41,5.84,1.87-6.39,7.17,2.76,7.28-3.86,1.65-.33,5.73.55l-.11-.11Z"/>
            <g>
              <path class="cls-3" d="M230.44,143.24h.55c0,.22,2.2,4.52-.55,0Z"/>
              <g>
                <path class="cls-3" d="M237.6,157.02c.44,2.43,1.98,2.87,2.2,5.51-2.43-3.42-2.2-.22-3.09,0-4.74.99-.99-4.85-4.19-6.39,0-.33,4.41.88,4.96.88h.11Z"/>
                <path class="cls-3" d="M227.46,148.2c8.38,4.85,1.1,1.21.55,6.61-3.31-2.2.55-4.41-3.53-4.63l3.09-1.98h-.11Z"/>
                <path class="cls-3" d="M222.17,151.51s-.99.22-1.1-.22c.66-3.31.66-.88,1.1.22Z"/>
                <path class="cls-3" d="M222.17,151.51s1.21,0,.22,2.2c-.66-.55,0-1.65-.22-2.2Z"/>
              </g>
            </g>
          </g>
        </g>
        <g>
          <path class="cls-3" d="M284.45,135.52c-.08.11-.14.22-.22.33.07.06.14.14.22.22v-.55Z"/>
          <path class="cls-3" d="M335.83,211.04c-.33-1.43-2.76-2.87-2.76-3.09-.77.55-1.65.55-1.65.55-1.21.77-8.05,6.61-8.6,6.61-2.65-.44,1.76-7.94-11.91-4.19-2.43-10.8,0-11.02,0-11.58,2.09-12.24,1.98-17.75,14.33-18.52,3.97-4.52,6.95-9.7,8.82-15.43.55-1.65.66-3.31,1.1-4.96.22-9.7-2.76-9.04-11.02-11.02.99,2.76,1.98,1.32,2.2,1.98.33.99-6.17,19.95-9.7,21.17-.77-2.43-4.63-11.13-4.63-11.91-.11-1.76,1.43-3.2,1.65-4.19-4.63,7.61-4.3,3.2-11.02,6.06,4.63,17.2-18.74,29.21,0,24.47-10.58,23.7-.99,26.02-.55,28.11.44,2.76-7.83,34.18-9.7,34.4-3.09-3.64-15.21-17.64-15.65-21.17-.11-.77.44-14.66.55-15.43.22-.88,7.83-13.34,8.27-15.99,1.1-6.84-5.4-14.77-5.51-16.54-.11-1.98,2.76-7.06,2.76-7.72.11-.99-2.76-9.81-2.76-10.47,0-.55,1.87-3.09,2.2-9.04.32-5.62-1.88-11.67,1.99-17.31-2.27-1.99-4.82,6.23-3.64-2.53-2.54,5.73-1.43,5.07-1.65,5.29-.44.66-1.98-.11-2.76.55-.44.44-.99,11.02-6.61,5.51-.11-1.32,7.94-5.84-1.1-1.98l-1.1,1.32c3.53,5.62,3.86,2.65,4.41,9.04.33,4.19,1.21,4.19-3.31,5.51-.77.22-1.32-.88-2.43-.55-1.65.55-2.09,4.19-3.53,4.96-1.54.88-3.09-1.54-3.31-.88,1.76,3.09-.66,5.29,3.86,6.06-6.17,1.65-.88,1.65-1.65,2.76-8.93,1.87-2.65-.55-2.76-2.2-.11-.88-2.54.44-.55-4.41-2.09-3.31-.44,2.65-3.86-.55,3.2-3.09-.55-1.98-.55-2.2-.22-.33.33-6.72-1.65-5.51-1.76,8.49-2.98-.22-6.61-.88-3.53-.66-3.2,1.54-7.72,2.2.44,2.43,1.98,2.87,2.2,5.51.55,5.95-2.98,10.58,1.1,14.33,10.58,9.7,11.24-.11,13.78,25.58-7.61-1.21-7.72-8.16-16.54-3.53.99,1.76,3.09,6.06,2.2,7.72,16.43,31.42,17.97,21.61,26.24,24.8.88.44,5.73,10.8,10.14,17.42,2.43,3.64,9.59,10.91,9.92,11.58,1.65,3.97-.55,9.04-.55,13.01-.33,14.33-1.43,28.66-2.2,43-.55,9.59-1.21,19.07-1.65,28.66-.22,4.41.11,8.82,0,13.23-.22,6.39-.77,12.9-1.1,19.29,4.19.55,8.49,1.54,12.68,2.2,2.98-1.87.99-5.95,1.98-6.61.33-.22,7.94,1.54,7.94-1.1-1.54.11-5.18.66-6.84,1.1-1.87-.66-.22-14-.22-16.54,0-4.08-.11-8.05,0-12.13.22-9.04.88-17.97,1.1-27.01.33-15.99-1.32-25.91.55-43,.33-2.87-.22-8.05.55-10.8.33-1.1,5.73-5.95,9.37-20.95,1.87-7.83,2.32-24.69,5.73-25.14,12.13,11.02,14.88,4.74,22.27-.55-1.98-2.87-.22-5.29-.55-6.39ZM269.35,171.9c1.76,0,.77,2.98-.88.88.33-.22.66-.88.88-.88ZM253.59,209.06l.88-.88v.11c2.32-.55,11.36,9.26,13.45,11.24-7.28,3.86-9.37-5.18-14.33-10.47ZM263.84,184.03l10.8,10.14c-9.37,23.04-8.05,10.36-10.8-10.14Z"/>
        </g>
      </g>
    </g>
    <g id="Clouds">
      <g>
        <path class="cls-4" d="M399.38,194.97c1.88,0,22,5.97,28.14,6.82,16.88,2.22,34.11,3.24,51.16,5.12l.34,3.75-145.29-.34v-1.71c11.94,1.36,62.24-13.64,65.65-13.64Z"/>
        <path class="cls-4" d="M96.7,142.96c6.99-2.73,131.82,1.36,150.4,1.19-50.65,4.6-101.46,3.75-152.11,3.75-1.36-.68.68-4.77,1.71-5.12v.17Z"/>
        <path class="cls-4" d="M70.27,176.21c4.6-1.53,85.6.34,97.2.85,13.64.51,47.07,3.07,12.79,5.12-33.08,2.05-78.61-1.53-113.4,0-.34-1.19,2.9-5.8,3.41-5.97Z"/>
        <path class="cls-1" d="M215.21,129.32c23.02-.85,126.19-1.19,144.09,0,15.86,1.02,20.12,3.07.85,4.26-18.08,1.19-72.64.34-95.49,0-13.47-.17-58.66-.85-64.8-1.71-12.79-1.71,11.25-2.39,15.35-2.56Z"/>
        <path class="cls-1" d="M440.31,177.92c38.71-1.19,32.57,7.5-17.05,3.41-3.58-2.73,9.38-3.24,17.05-3.41Z"/>
        <path class="cls-1" d="M130.8,199.23c26.6.51,28.14,5.8,0,3.41v-3.41Z"/>
        <path class="cls-2" d="M61.74,200.09l21.66.34c-3.92,2.05-21.32,2.39-21.66-.34Z"/>
        <path class="cls-5" d="M261.26,153.19c5.97,4.6,16.2-3.41,7.67,3.41-2.22.68-10.23-2.22-7.67-3.41Z"/>
      </g>
    </g>
  </g>
</svg>